<mxfile host="app.diagrams.net" modified="2023-10-18T02:36:53.319Z" agent="Mozilla/5.0 (Windows NT 10.0; Win64; x64) AppleWebKit/537.36 (KHTML, like Gecko) Chrome/118.0.0.0 Safari/537.36 Edg/118.0.2088.46" etag="q8iiq4NBdwo41UiSZ5za" version="22.0.4" type="device">
  <diagram name="PÃ¡gina-1" id="pqko-8Hsg2PZRbArHsT0">
    <mxGraphModel dx="655" dy="586" grid="1" gridSize="10" guides="1" tooltips="1" connect="1" arrows="1" fold="1" page="1" pageScale="1" pageWidth="827" pageHeight="1169" math="0" shadow="0">
      <root>
        <mxCell id="0" />
        <mxCell id="1" parent="0" />
        <mxCell id="2w4r4V1R9U6VnOv1uw-h-18" value="" style="shape=tableRow;horizontal=0;startSize=0;swimlaneHead=0;swimlaneBody=0;fillColor=none;collapsible=0;dropTarget=0;points=[[0,0.5],[1,0.5]];portConstraint=eastwest;top=0;left=0;right=0;bottom=0;" parent="1" vertex="1">
          <mxGeometry x="120" y="450" width="240" height="30" as="geometry" />
        </mxCell>
        <mxCell id="2w4r4V1R9U6VnOv1uw-h-19" value="" style="shape=partialRectangle;connectable=0;fillColor=none;top=0;left=0;bottom=0;right=0;editable=1;overflow=hidden;whiteSpace=wrap;html=1;" parent="2w4r4V1R9U6VnOv1uw-h-18" vertex="1">
          <mxGeometry x="-10" width="30" height="30" as="geometry">
            <mxRectangle width="30" height="30" as="alternateBounds" />
          </mxGeometry>
        </mxCell>
        <mxCell id="atdI0x6CRYeGn_fadKyX-2" value="&amp;lt;&amp;lt;interface&amp;gt;&amp;gt;&lt;br style=&quot;border-color: var(--border-color);&quot;&gt;Browser" style="swimlane;fontStyle=0;childLayout=stackLayout;horizontal=1;startSize=30;horizontalStack=0;resizeParent=1;resizeParentMax=0;resizeLast=0;collapsible=1;marginBottom=0;whiteSpace=wrap;html=1;rounded=1;labelBackgroundColor=none;fillColor=#56517E;strokeColor=#EEEEEE;fontColor=#FFFFFF;" parent="1" vertex="1">
          <mxGeometry x="790" y="740" width="140" height="60" as="geometry" />
        </mxCell>
        <mxCell id="YPB1_QdB95gAGOATV4tu-5" value="&lt;font color=&quot;#000000&quot;&gt;+ displayPage() : void&lt;/font&gt;" style="text;strokeColor=default;fillColor=none;align=center;verticalAlign=middle;spacingLeft=4;spacingRight=4;overflow=hidden;points=[[0,0.5],[1,0.5]];portConstraint=eastwest;rotatable=0;whiteSpace=wrap;html=1;rounded=1;labelBackgroundColor=none;fontColor=#FFFFFF;" vertex="1" parent="atdI0x6CRYeGn_fadKyX-2">
          <mxGeometry y="30" width="140" height="30" as="geometry" />
        </mxCell>
        <mxCell id="atdI0x6CRYeGn_fadKyX-6" value="&amp;lt;&amp;lt;interface&amp;gt;&amp;gt;&lt;br style=&quot;border-color: var(--border-color);&quot;&gt;Phone&amp;nbsp;" style="swimlane;fontStyle=0;childLayout=stackLayout;horizontal=1;startSize=30;horizontalStack=0;resizeParent=1;resizeParentMax=0;resizeLast=0;collapsible=1;marginBottom=0;whiteSpace=wrap;html=1;rounded=1;labelBackgroundColor=none;fillColor=#56517E;strokeColor=#EEEEEE;fontColor=#FFFFFF;" parent="1" vertex="1">
          <mxGeometry x="560" y="740" width="140" height="60" as="geometry" />
        </mxCell>
        <mxCell id="atdI0x6CRYeGn_fadKyX-8" value="&lt;font color=&quot;#000000&quot;&gt;+ call() : void&lt;/font&gt;" style="text;strokeColor=default;fillColor=default;align=center;verticalAlign=middle;spacingLeft=4;spacingRight=4;overflow=hidden;points=[[0,0.5],[1,0.5]];portConstraint=eastwest;rotatable=0;whiteSpace=wrap;html=1;rounded=1;labelBackgroundColor=none;fontColor=#FFFFFF;" parent="atdI0x6CRYeGn_fadKyX-6" vertex="1">
          <mxGeometry y="30" width="140" height="30" as="geometry" />
        </mxCell>
        <mxCell id="atdI0x6CRYeGn_fadKyX-11" value="&amp;lt;&amp;lt;interface&amp;gt;&amp;gt;&lt;br style=&quot;border-color: var(--border-color);&quot;&gt;MusicPlayer" style="swimlane;fontStyle=0;childLayout=stackLayout;horizontal=1;startSize=30;horizontalStack=0;resizeParent=1;resizeParentMax=0;resizeLast=0;collapsible=1;marginBottom=0;whiteSpace=wrap;html=1;rounded=1;labelBackgroundColor=none;fillColor=#56517E;strokeColor=#EEEEEE;fontColor=#FFFFFF;" parent="1" vertex="1">
          <mxGeometry x="340" y="740" width="150" height="90" as="geometry" />
        </mxCell>
        <mxCell id="atdI0x6CRYeGn_fadKyX-13" value="&lt;font color=&quot;#000000&quot;&gt;+ playMusic() : void&lt;/font&gt;" style="text;strokeColor=default;fillColor=none;align=center;verticalAlign=middle;spacingLeft=4;spacingRight=4;overflow=hidden;points=[[0,0.5],[1,0.5]];portConstraint=eastwest;rotatable=0;whiteSpace=wrap;html=1;rounded=1;labelBackgroundColor=none;fontColor=#FFFFFF;" parent="atdI0x6CRYeGn_fadKyX-11" vertex="1">
          <mxGeometry y="30" width="150" height="30" as="geometry" />
        </mxCell>
        <mxCell id="atdI0x6CRYeGn_fadKyX-14" value="&lt;font color=&quot;#000000&quot;&gt;+ pauseMusic() : void&lt;/font&gt;" style="text;strokeColor=default;fillColor=none;align=center;verticalAlign=middle;spacingLeft=4;spacingRight=4;overflow=hidden;points=[[0,0.5],[1,0.5]];portConstraint=eastwest;rotatable=0;whiteSpace=wrap;html=1;rounded=1;labelBackgroundColor=none;fontColor=#FFFFFF;" parent="atdI0x6CRYeGn_fadKyX-11" vertex="1">
          <mxGeometry y="60" width="150" height="30" as="geometry" />
        </mxCell>
        <mxCell id="atdI0x6CRYeGn_fadKyX-15" value="&amp;lt;&amp;lt;Class&amp;gt;&amp;gt;&lt;br&gt;Iphone" style="swimlane;fontStyle=0;childLayout=stackLayout;horizontal=1;startSize=30;horizontalStack=0;resizeParent=1;resizeParentMax=0;resizeLast=0;collapsible=1;marginBottom=0;whiteSpace=wrap;html=1;rounded=1;labelBackgroundColor=none;fillColor=#56517E;strokeColor=#EEEEEE;fontColor=#FFFFFF;" parent="1" vertex="1">
          <mxGeometry x="560" y="560" width="140" height="90" as="geometry" />
        </mxCell>
        <mxCell id="atdI0x6CRYeGn_fadKyX-16" value="&lt;font color=&quot;#000000&quot;&gt;- field : type&lt;/font&gt;" style="text;strokeColor=default;fillColor=none;align=center;verticalAlign=middle;spacingLeft=4;spacingRight=4;overflow=hidden;points=[[0,0.5],[1,0.5]];portConstraint=eastwest;rotatable=0;whiteSpace=wrap;html=1;rounded=1;labelBackgroundColor=none;fontColor=#FFFFFF;" parent="atdI0x6CRYeGn_fadKyX-15" vertex="1">
          <mxGeometry y="30" width="140" height="30" as="geometry" />
        </mxCell>
        <mxCell id="atdI0x6CRYeGn_fadKyX-17" value="&lt;font color=&quot;#000000&quot;&gt;+ method(type)&lt;/font&gt;" style="text;strokeColor=default;fillColor=none;align=center;verticalAlign=middle;spacingLeft=4;spacingRight=4;overflow=hidden;points=[[0,0.5],[1,0.5]];portConstraint=eastwest;rotatable=0;whiteSpace=wrap;html=1;rounded=1;labelBackgroundColor=none;fontColor=#FFFFFF;" parent="atdI0x6CRYeGn_fadKyX-15" vertex="1">
          <mxGeometry y="60" width="140" height="30" as="geometry" />
        </mxCell>
        <mxCell id="YPB1_QdB95gAGOATV4tu-1" value="&lt;font color=&quot;#000000&quot;&gt;+selectMusic(nome:String)&lt;/font&gt;" style="text;strokeColor=default;fillColor=none;align=left;verticalAlign=middle;spacingLeft=4;spacingRight=4;overflow=hidden;points=[[0,0.5],[1,0.5]];portConstraint=eastwest;rotatable=0;whiteSpace=wrap;html=1;rounded=1;labelBackgroundColor=none;fontColor=#FFFFFF;" vertex="1" parent="1">
          <mxGeometry x="340" y="830" width="150" height="30" as="geometry" />
        </mxCell>
        <mxCell id="YPB1_QdB95gAGOATV4tu-3" value="&lt;font color=&quot;#000000&quot;&gt;+ refreshPage(nome: String)&lt;/font&gt;" style="text;strokeColor=default;fillColor=none;align=center;verticalAlign=middle;spacingLeft=4;spacingRight=4;overflow=hidden;points=[[0,0.5],[1,0.5]];portConstraint=eastwest;rotatable=0;whiteSpace=wrap;html=1;rounded=1;labelBackgroundColor=none;fontColor=#FFFFFF;" vertex="1" parent="1">
          <mxGeometry x="790" y="830" width="140" height="30" as="geometry" />
        </mxCell>
        <mxCell id="YPB1_QdB95gAGOATV4tu-4" value="&lt;font color=&quot;#000000&quot;&gt;+ addtab() : void&lt;/font&gt;" style="text;strokeColor=default;fillColor=none;align=center;verticalAlign=middle;spacingLeft=4;spacingRight=4;overflow=hidden;points=[[0,0.5],[1,0.5]];portConstraint=eastwest;rotatable=0;whiteSpace=wrap;html=1;rounded=1;labelBackgroundColor=none;fontColor=#FFFFFF;" vertex="1" parent="1">
          <mxGeometry x="790" y="800" width="140" height="30" as="geometry" />
        </mxCell>
        <mxCell id="YPB1_QdB95gAGOATV4tu-6" value="&lt;font color=&quot;#000000&quot;&gt;+ voiceChat() : void&lt;/font&gt;" style="text;strokeColor=default;fillColor=default;align=center;verticalAlign=middle;spacingLeft=4;spacingRight=4;overflow=hidden;points=[[0,0.5],[1,0.5]];portConstraint=eastwest;rotatable=0;whiteSpace=wrap;html=1;rounded=1;labelBackgroundColor=none;fontColor=#FFFFFF;" vertex="1" parent="1">
          <mxGeometry x="560" y="830" width="140" height="30" as="geometry" />
        </mxCell>
        <mxCell id="YPB1_QdB95gAGOATV4tu-7" value="&lt;font color=&quot;#000000&quot;&gt;+ answerCall() : void&lt;/font&gt;" style="text;strokeColor=default;fillColor=default;align=center;verticalAlign=middle;spacingLeft=4;spacingRight=4;overflow=hidden;points=[[0,0.5],[1,0.5]];portConstraint=eastwest;rotatable=0;whiteSpace=wrap;html=1;rounded=1;labelBackgroundColor=none;fontColor=#FFFFFF;" vertex="1" parent="1">
          <mxGeometry x="560" y="800" width="140" height="30" as="geometry" />
        </mxCell>
        <mxCell id="YPB1_QdB95gAGOATV4tu-11" value="" style="endArrow=classic;html=1;rounded=0;entryX=0.5;entryY=0;entryDx=0;entryDy=0;" edge="1" parent="1" source="atdI0x6CRYeGn_fadKyX-17" target="atdI0x6CRYeGn_fadKyX-6">
          <mxGeometry width="50" height="50" relative="1" as="geometry">
            <mxPoint x="560" y="890" as="sourcePoint" />
            <mxPoint x="610" y="840" as="targetPoint" />
          </mxGeometry>
        </mxCell>
        <mxCell id="YPB1_QdB95gAGOATV4tu-12" style="edgeStyle=orthogonalEdgeStyle;rounded=1;orthogonalLoop=1;jettySize=auto;html=1;exitX=0;exitY=0.5;exitDx=0;exitDy=0;entryX=0.446;entryY=-0.02;entryDx=0;entryDy=0;entryPerimeter=0;" edge="1" parent="1" source="atdI0x6CRYeGn_fadKyX-16" target="atdI0x6CRYeGn_fadKyX-11">
          <mxGeometry relative="1" as="geometry" />
        </mxCell>
        <mxCell id="YPB1_QdB95gAGOATV4tu-13" style="edgeStyle=orthogonalEdgeStyle;rounded=1;orthogonalLoop=1;jettySize=auto;html=1;exitX=1;exitY=0.5;exitDx=0;exitDy=0;entryX=0.5;entryY=0;entryDx=0;entryDy=0;" edge="1" parent="1" source="atdI0x6CRYeGn_fadKyX-16" target="atdI0x6CRYeGn_fadKyX-2">
          <mxGeometry relative="1" as="geometry" />
        </mxCell>
        <mxCell id="YPB1_QdB95gAGOATV4tu-18" value="Music Player" style="html=1;whiteSpace=wrap;" vertex="1" parent="1">
          <mxGeometry x="300" y="670" width="90" height="30" as="geometry" />
        </mxCell>
        <mxCell id="YPB1_QdB95gAGOATV4tu-20" style="edgeStyle=orthogonalEdgeStyle;rounded=0;orthogonalLoop=1;jettySize=auto;html=1;entryX=0.361;entryY=-0.011;entryDx=0;entryDy=0;entryPerimeter=0;" edge="1" parent="1" source="YPB1_QdB95gAGOATV4tu-18" target="atdI0x6CRYeGn_fadKyX-11">
          <mxGeometry relative="1" as="geometry" />
        </mxCell>
        <mxCell id="YPB1_QdB95gAGOATV4tu-21" value="Phone" style="html=1;whiteSpace=wrap;" vertex="1" parent="1">
          <mxGeometry x="640" y="670" width="90" height="30" as="geometry" />
        </mxCell>
        <mxCell id="YPB1_QdB95gAGOATV4tu-22" style="edgeStyle=orthogonalEdgeStyle;rounded=0;orthogonalLoop=1;jettySize=auto;html=1;entryX=0.643;entryY=0;entryDx=0;entryDy=0;entryPerimeter=0;" edge="1" parent="1" source="YPB1_QdB95gAGOATV4tu-21" target="atdI0x6CRYeGn_fadKyX-6">
          <mxGeometry relative="1" as="geometry" />
        </mxCell>
        <mxCell id="YPB1_QdB95gAGOATV4tu-23" value="Internet Browser" style="html=1;whiteSpace=wrap;" vertex="1" parent="1">
          <mxGeometry x="880" y="670" width="90" height="30" as="geometry" />
        </mxCell>
        <mxCell id="YPB1_QdB95gAGOATV4tu-24" style="edgeStyle=orthogonalEdgeStyle;rounded=0;orthogonalLoop=1;jettySize=auto;html=1;entryX=0.649;entryY=-0.003;entryDx=0;entryDy=0;entryPerimeter=0;" edge="1" parent="1" source="YPB1_QdB95gAGOATV4tu-23" target="atdI0x6CRYeGn_fadKyX-2">
          <mxGeometry relative="1" as="geometry" />
        </mxCell>
      </root>
    </mxGraphModel>
  </diagram>
</mxfile>
